HIERARCHY
ROOT Hips
{
	OFFSET -0.001795 -0.223333 0.028219
	CHANNELS 6 Xposition Yposition Zposition Zrotation Yrotation Xrotation 
	JOINT LeftUpLeg
	{
		OFFSET 0.069520 -0.091406 -0.006815
		CHANNELS 3 Zrotation Yrotation Xrotation
		JOINT LeftLeg
		{
			OFFSET 0.034277 -0.375199 -0.004496
			CHANNELS 3 Zrotation Yrotation Xrotation
			JOINT LeftFoot
			{
				OFFSET -0.013596 -0.397961 -0.043693
				CHANNELS 3 Zrotation Yrotation Xrotation
				JOINT LeftToe
				{
					OFFSET 0.026358 -0.055791 0.119288
					CHANNELS 3 Zrotation Yrotation Xrotation
					End Site
					{
						OFFSET 0.000000 0.000000 0.000000
					}
				}
			}
		}
	}
	JOINT RightUpLeg
	{
		OFFSET -0.067670 -0.090522 -0.004320
		CHANNELS 3 Zrotation Yrotation Xrotation
		JOINT RightLeg
		{
			OFFSET -0.038290 -0.382569 -0.008850
			CHANNELS 3 Zrotation Yrotation Xrotation
			JOINT RightFoot
			{
				OFFSET 0.015774 -0.398415 -0.042312
				CHANNELS 3 Zrotation Yrotation Xrotation
				JOINT RightToe
				{
					OFFSET -0.025372 -0.048144 0.123348
					CHANNELS 3 Zrotation Yrotation Xrotation
					End Site
					{
						OFFSET 0.000000 0.000000 0.000000
					}
				}
			}
		}
	}
	JOINT Spine
	{
		OFFSET -0.002533 0.108963 -0.026696
		CHANNELS 3 Zrotation Yrotation Xrotation
		JOINT Spine1
		{
			OFFSET 0.005487 0.135180 0.001092
			CHANNELS 3 Zrotation Yrotation Xrotation
			JOINT Spine2
			{
				OFFSET 0.001457 0.052922 0.025425
				CHANNELS 3 Zrotation Yrotation Xrotation
				JOINT Neck
				{
					OFFSET -0.002778 0.213870 -0.042857
					CHANNELS 3 Zrotation Yrotation Xrotation
					JOINT Head
					{
						OFFSET 0.005152 0.064970 0.051349
						CHANNELS 3 Zrotation Yrotation Xrotation
						End Site
						{
							OFFSET 0.000000 0.000000 0.000000
						}
					}
				}
				JOINT LeftShoulder
				{
					OFFSET 0.078845 0.121749 -0.034090
					CHANNELS 3 Zrotation Yrotation Xrotation
					JOINT LeftArm
					{
						OFFSET 0.090977 0.030469 -0.008868
						CHANNELS 3 Zrotation Yrotation Xrotation
						JOINT LeftForeArm
						{
							OFFSET 0.259612 -0.012772 -0.027456
							CHANNELS 3 Zrotation Yrotation Xrotation
							JOINT LeftHand
							{
								OFFSET 0.249234 0.008986 -0.001171
								CHANNELS 3 Zrotation Yrotation Xrotation
								End Site
								{
									OFFSET 0.000000 0.000000 0.000000
								}
							}
						}
					}
				}
				JOINT RightShoulder
				{
					OFFSET -0.081759 0.118833 -0.038615
					CHANNELS 3 Zrotation Yrotation Xrotation
					JOINT RightArm
					{
						OFFSET -0.096012 0.032551 -0.009143
						CHANNELS 3 Zrotation Yrotation Xrotation
						JOINT RightForeArm
						{
							OFFSET -0.253742 -0.013329 -0.021401
							CHANNELS 3 Zrotation Yrotation Xrotation
							JOINT RightHand
							{
								OFFSET -0.255298 0.007772 -0.005559
								CHANNELS 3 Zrotation Yrotation Xrotation
								End Site
								{
									OFFSET 0.000000 0.000000 0.000000
								}
							}
						}
					}
				}
			}
		}
	}
}
MOTION
Frames: 17
Frame Time: 0.050000
1.317630 0.860476 4.537627 -2.886411 -4.147867 -7.104520 7.324027 -0.538637 -39.401330 -9.960368 4.566001 46.056672 7.081050 14.740255 4.296738 0.000000 0.000000 0.000000 8.331698 8.235036 -42.161966 -0.608427 2.496941 39.897930 -0.562686 -3.412390 4.186351 0.000000 0.000000 0.000000 4.283533 -2.088959 31.578845 3.588754 -1.397555 -7.142159 -0.867738 4.226789 11.240620 5.393928 -1.065872 -23.644388 0.000000 0.000000 0.000000 -2.535979 -11.074045 3.640552 -52.536908 -31.367481 6.873293 113.830885 -59.983250 -78.737422 0.000000 0.000000 0.000000 9.588392 7.209066 2.729061 57.194960 28.462045 7.816333 -173.519402 77.152084 -163.808359 0.000000 0.000000 0.000000 
1.360552 0.849103 4.631181 -2.394813 -3.782537 -5.618733 10.094040 0.548022 -44.911103 -7.722343 2.633547 37.257866 4.522776 11.832039 14.097445 0.000000 0.000000 0.000000 6.767613 8.106816 -44.801804 0.474052 1.740928 36.826650 0.634716 -2.449750 7.991797 0.000000 0.000000 0.000000 3.220470 -2.189034 37.980896 2.573227 -0.863916 -9.079662 -1.190640 6.468732 10.388921 7.806436 -1.752637 -25.772421 0.000000 0.000000 0.000000 -5.673597 -15.621968 5.142934 -43.432482 -33.461948 6.089668 105.540644 -55.278752 -67.070199 0.000000 0.000000 0.000000 11.465480 10.106350 4.510022 54.420409 34.948446 10.692904 -145.221799 78.784581 -129.287665 0.000000 0.000000 0.000000 
1.399942 0.833837 4.717896 -2.394071 -3.645265 -3.536137 12.666522 1.729020 -47.650131 -2.250666 0.073960 21.264136 -0.496261 7.250994 25.800436 0.000000 0.000000 0.000000 5.473575 8.366238 -48.958761 0.518522 1.935527 40.618155 1.478630 -1.967699 10.924504 0.000000 0.000000 0.000000 3.480545 -2.570556 42.482084 0.235509 0.064070 -8.409210 -0.262732 7.077679 9.031456 7.464869 -1.552598 -24.901838 0.000000 0.000000 0.000000 -5.890070 -16.787487 5.540543 -41.747774 -35.445321 6.595661 101.788330 -51.627194 -59.979071 0.000000 0.000000 0.000000 8.314956 12.296738 5.271901 53.767804 39.412617 13.238236 -117.824353 76.593783 -96.568071 0.000000 0.000000 0.000000 
1.436888 0.809661 4.799684 -1.801911 -5.017450 -2.801934 15.866093 3.582400 -48.031873 -0.370938 -0.250608 11.443857 -5.344011 3.942961 35.324828 0.000000 0.000000 0.000000 3.867470 8.956318 -53.783382 0.376250 3.085776 52.448607 -0.068187 -4.246510 8.689153 0.000000 0.000000 0.000000 2.662331 -2.187552 47.508774 -0.781412 0.454072 -8.729197 -1.877933 7.083625 9.146840 9.412180 -2.055901 -28.477203 0.000000 0.000000 0.000000 -4.267068 -17.874084 5.948694 -37.362732 -37.139579 6.095904 96.707646 -44.881945 -48.584643 0.000000 0.000000 0.000000 8.917818 15.286896 6.672025 49.847430 42.813521 13.552557 -117.350545 70.417128 -89.495730 0.000000 0.000000 0.000000 
1.470163 0.783118 4.873614 -1.568188 -6.854838 -2.259280 17.246753 5.038723 -50.363064 -0.147956 -0.342338 14.711962 -7.443047 1.662143 35.755623 0.000000 0.000000 0.000000 1.775714 9.273120 -57.897573 2.654180 2.654417 62.572676 -1.640196 -5.825571 3.760211 0.000000 0.000000 0.000000 1.312786 -1.229226 52.181052 -0.002258 0.133353 -9.510005 -3.563419 7.431174 9.010301 9.501537 -2.074435 -28.341961 0.000000 0.000000 0.000000 -4.243452 -19.161428 6.410734 -32.025592 -36.893116 4.825485 94.889690 -38.198182 -40.670069 0.000000 0.000000 0.000000 10.571164 17.205950 7.871136 44.094893 45.949402 12.785409 -117.524594 64.856421 -83.344767 0.000000 0.000000 0.000000 
1.495735 0.764295 4.936271 -2.552391 -6.501008 -0.093415 18.249780 6.170460 -55.750631 -1.473725 -0.084716 23.823058 -7.161120 1.803312 34.840746 0.000000 0.000000 0.000000 -0.221017 9.012502 -62.700983 5.369070 0.585775 70.628356 -2.777905 -7.551438 1.066785 0.000000 0.000000 0.000000 0.439626 -0.911366 56.300025 -0.224856 0.244489 -10.046440 -3.445037 6.542540 8.573035 11.740573 -2.637543 -31.607495 0.000000 0.000000 0.000000 -1.004976 -19.807372 6.571096 -25.977879 -40.489873 4.095040 92.856846 -30.440789 -31.333795 0.000000 0.000000 0.000000 7.744229 16.831140 7.236503 42.408405 49.912460 14.003874 -116.265739 58.066587 -73.994487 0.000000 0.000000 0.000000 
1.512984 0.750087 4.988429 -2.986626 -6.408594 1.605332 18.898540 7.051375 -59.362782 -2.721567 0.386083 31.418758 -5.490593 1.722185 28.489277 0.000000 0.000000 0.000000 -1.613583 8.511744 -64.652427 5.318761 0.641842 74.639136 -3.236742 -7.366619 -2.839437 0.000000 0.000000 0.000000 -1.721502 0.304486 58.215667 0.995676 -0.149201 -11.748260 -3.661362 6.215044 10.382342 9.528757 -1.405849 -33.323365 0.000000 0.000000 0.000000 1.498032 -22.321329 7.292327 -18.819365 -41.071145 2.117041 91.298090 -24.799485 -24.845355 0.000000 0.000000 0.000000 5.610435 16.821399 6.961259 44.109588 53.110583 16.197391 -117.511276 53.430348 -68.959816 0.000000 0.000000 0.000000 
1.525155 0.741023 5.034476 -3.514272 -5.944793 4.264665 19.454459 7.784607 -62.938882 -3.221806 0.626193 36.249083 -5.888380 -0.116814 24.467262 0.000000 0.000000 0.000000 -2.216641 8.100472 -65.419456 5.352543 0.535358 78.291928 -3.950710 -7.172309 -8.757458 0.000000 0.000000 0.000000 -2.397658 0.600805 59.183721 0.668041 0.026849 -13.203447 -4.007491 5.021459 10.451119 10.088369 -1.460317 -35.123176 0.000000 0.000000 0.000000 5.399074 -22.755629 7.152255 -15.949837 -42.268727 1.414212 91.107955 -20.701450 -20.156625 0.000000 0.000000 0.000000 4.670201 16.888734 6.852222 43.364147 55.359611 16.822557 -116.820154 49.558360 -63.402505 0.000000 0.000000 0.000000 
1.535317 0.733224 5.076671 -3.305867 -6.047082 5.489510 19.998378 8.525007 -64.816462 -3.688400 0.897140 38.842518 -5.409439 -0.649548 21.279976 0.000000 0.000000 0.000000 -3.130701 7.441107 -64.477553 4.785038 1.325979 81.811322 -4.838882 -8.336671 -13.291712 0.000000 0.000000 0.000000 -3.429587 1.294279 59.546431 0.134740 0.273320 -15.929933 -4.556524 4.721648 12.288762 9.750686 -1.274963 -35.982077 0.000000 0.000000 0.000000 7.004759 -24.616321 7.506406 -10.620397 -42.058515 -0.192932 89.926953 -18.021052 -17.037421 0.000000 0.000000 0.000000 5.572373 17.081953 7.091626 41.310503 57.744238 16.631156 -112.968751 46.430929 -55.602069 0.000000 0.000000 0.000000 
1.545648 0.729628 5.115542 -3.776094 -6.095174 7.136670 19.755684 8.737589 -66.628803 -2.991544 0.592460 40.958000 -4.645894 -1.154281 17.146143 0.000000 0.000000 0.000000 -2.756075 7.469463 -63.189984 2.776144 3.783476 84.350689 -5.229160 -8.913512 -15.457282 0.000000 0.000000 0.000000 -3.676210 1.451472 58.837247 -0.712624 0.552585 -17.019761 -4.616654 4.148647 13.718681 9.828849 -1.297316 -36.729255 0.000000 0.000000 0.000000 9.073015 -24.711505 7.269702 -7.556333 -42.381981 -1.085114 89.616599 -15.796580 -14.497694 0.000000 0.000000 0.000000 3.889464 17.242523 6.907423 40.150277 60.027130 16.898192 -111.829774 42.262352 -49.242897 0.000000 0.000000 0.000000 
1.557223 0.730281 5.150824 -3.718861 -5.731779 8.982798 19.193468 8.519204 -68.385251 -2.481899 0.319325 41.984785 -4.285189 -1.529650 14.855472 0.000000 0.000000 0.000000 -3.598442 6.518940 -60.796467 1.846244 4.877912 85.279217 -5.357343 -8.381200 -17.772580 0.000000 0.000000 0.000000 -3.585696 1.269152 57.614137 -1.327053 0.758124 -18.503600 -5.089745 4.391993 15.492247 11.178295 -1.475073 -39.087280 0.000000 0.000000 0.000000 11.307159 -25.451196 7.155322 -4.985559 -43.131036 -1.971594 90.507785 -14.333225 -13.288858 0.000000 0.000000 0.000000 2.984731 16.410845 6.540339 37.590110 62.034487 16.271382 -110.553830 38.887737 -43.377788 0.000000 0.000000 0.000000 
1.570132 0.734514 5.183194 -4.123907 -5.967309 11.229016 19.134808 8.828483 -69.450057 -1.890226 0.058890 43.611247 -3.559664 -1.799700 11.449091 0.000000 0.000000 0.000000 -4.326088 5.929932 -58.627993 0.885080 6.154402 85.308891 -4.911935 -7.269492 -16.223248 0.000000 0.000000 0.000000 -3.454794 1.248793 56.269016 -1.841201 0.908507 -20.149941 -4.914775 4.880772 17.890086 11.404544 -1.339934 -40.636563 0.000000 0.000000 0.000000 13.054794 -24.917482 6.791701 -2.214116 -43.853626 -2.997064 91.365003 -12.395331 -11.540986 0.000000 0.000000 0.000000 0.143547 16.192088 6.145047 33.526514 63.703068 14.558060 -110.153835 33.775791 -35.971676 0.000000 0.000000 0.000000 
1.584303 0.741259 5.213199 -4.478220 -6.455043 13.839234 18.525825 9.133827 -71.767125 -0.447740 -0.698879 45.497358 -4.413810 -3.540606 10.872894 0.000000 0.000000 0.000000 -6.206061 5.007219 -57.244087 0.816394 6.099161 82.936777 -4.367878 -4.993882 -16.169924 0.000000 0.000000 0.000000 -3.372583 1.324050 54.671325 -2.481368 1.070012 -21.311591 -4.786755 5.000124 19.596552 11.901650 -1.273008 -42.417878 0.000000 0.000000 0.000000 16.073866 -24.080674 6.181026 -1.063960 -43.744201 -3.388991 91.424240 -9.678956 -8.722131 0.000000 0.000000 0.000000 -2.619035 14.635800 5.278602 28.965245 65.878580 12.565567 -108.006449 29.769902 -29.324996 0.000000 0.000000 0.000000 
1.599177 0.747945 5.242139 -5.710491 -7.362324 16.426727 18.849432 10.297557 -73.322311 0.531490 -1.199877 47.239640 -4.890307 -4.546024 10.543333 0.000000 0.000000 0.000000 -8.389986 4.151509 -55.586423 0.984277 5.719883 78.759616 -3.541393 -2.258306 -14.945182 0.000000 0.000000 0.000000 -4.170446 2.048207 53.632681 -1.828475 0.902597 -21.820147 -4.320516 5.828811 20.104618 11.659852 -0.937622 -43.580507 0.000000 0.000000 0.000000 17.915545 -22.669320 5.764006 1.208977 -43.666383 -4.183678 89.850051 -7.618921 -6.601190 0.000000 0.000000 0.000000 -6.105232 14.314900 4.809307 22.975578 67.585049 9.680954 -106.644758 23.891370 -21.043120 0.000000 0.000000 0.000000 
1.615052 0.754266 5.270671 -6.990341 -8.229245 18.856516 18.504650 11.181849 -75.651177 2.449616 -2.398699 50.472766 -6.283285 -7.130810 10.254629 0.000000 0.000000 0.000000 -9.876270 3.721911 -54.431674 1.562630 5.017978 75.145439 -3.280469 -1.480177 -14.422561 0.000000 0.000000 0.000000 -4.588467 2.529372 52.626881 -1.723388 0.861517 -21.364596 -3.801834 6.863334 20.064132 11.218880 -0.562089 -44.419174 0.000000 0.000000 0.000000 20.236075 -21.984801 5.510544 1.799844 -43.591596 -4.482856 89.994437 -5.262940 -4.527726 0.000000 0.000000 0.000000 -9.564838 13.438313 4.183121 14.646570 69.031712 5.159997 -104.184999 17.259198 -11.890340 0.000000 0.000000 0.000000 
1.632110 0.761023 5.299308 -8.438871 -8.811540 21.203323 18.845813 12.291032 -76.954165 3.139252 -2.875769 52.529001 -6.560482 -8.171108 9.282285 0.000000 0.000000 0.000000 -11.339195 3.272319 -53.073323 1.947748 4.271774 69.765878 -2.976150 -0.592974 -13.783475 0.000000 0.000000 0.000000 -4.956928 2.858292 51.174619 -1.564997 0.800571 -20.345066 -2.631881 8.002836 19.912424 9.818289 0.077904 -45.208966 0.000000 0.000000 0.000000 21.501585 -21.307855 5.438592 1.527372 -43.678031 -4.562261 89.087410 -3.638139 -3.122072 0.000000 0.000000 0.000000 -12.555963 12.790380 3.680683 9.002841 70.002270 2.155324 -102.541736 13.356894 -6.679031 0.000000 0.000000 0.000000 
1.649673 0.767886 5.327916 -9.802430 -9.684254 23.699107 19.226901 13.533126 -77.631220 3.542261 -3.071765 53.260579 -6.383556 -8.887334 7.505298 0.000000 0.000000 0.000000 -12.261431 3.157299 -51.665344 2.149461 3.894714 64.701208 -2.884028 -0.813406 -12.867315 0.000000 0.000000 0.000000 -5.643278 3.356630 48.933139 -1.228108 0.686699 -19.141781 -2.315191 8.980246 19.456276 9.296952 0.386049 -45.852243 0.000000 0.000000 0.000000 22.445230 -20.539195 5.378011 -0.417354 -44.401870 -4.136870 88.948593 -4.319168 -3.689194 0.000000 0.000000 0.000000 -14.567312 12.875168 3.528939 5.076606 69.973951 -0.049909 -100.553187 11.142015 -3.700834 0.000000 0.000000 0.000000 
